<svg width="920" height="49" viewBox="0 0 920 49" fill="none" xmlns="http://www.w3.org/2000/svg">
<path d="M57.64 7.49L53.932 20H51.61L48.982 10.532L46.192 20L43.888 20.018L40.342 7.49H42.52L45.112 17.678L47.92 7.49H50.224L52.834 17.624L55.444 7.49H57.64ZM64.4624 9.92C65.2184 9.92 65.8904 10.082 66.4784 10.406C67.0784 10.73 67.5464 11.21 67.8824 11.846C68.2304 12.482 68.4044 13.25 68.4044 14.15V20H66.3704V14.456C66.3704 13.568 66.1484 12.89 65.7044 12.422C65.2604 11.942 64.6544 11.702 63.8864 11.702C63.1184 11.702 62.5064 11.942 62.0504 12.422C61.6064 12.89 61.3844 13.568 61.3844 14.456V20H59.3324V6.68H61.3844V11.234C61.7324 10.814 62.1704 10.49 62.6984 10.262C63.2384 10.034 63.8264 9.92 64.4624 9.92ZM70.3379 14.996C70.3379 14 70.5419 13.118 70.9499 12.35C71.3699 11.582 71.9339 10.988 72.6419 10.568C73.3619 10.136 74.1539 9.92 75.0179 9.92C75.7979 9.92 76.4759 10.076 77.0519 10.388C77.6399 10.688 78.1079 11.066 78.4559 11.522V10.082H80.5259V20H78.4559V18.524C78.1079 18.992 77.6339 19.382 77.0339 19.694C76.4339 20.006 75.7499 20.162 74.9819 20.162C74.1299 20.162 73.3499 19.946 72.6419 19.514C71.9339 19.07 71.3699 18.458 70.9499 17.678C70.5419 16.886 70.3379 15.992 70.3379 14.996ZM78.4559 15.032C78.4559 14.348 78.3119 13.754 78.0239 13.25C77.7479 12.746 77.3819 12.362 76.9259 12.098C76.4699 11.834 75.9779 11.702 75.4499 11.702C74.9219 11.702 74.4299 11.834 73.9739 12.098C73.5179 12.35 73.1459 12.728 72.8579 13.232C72.5819 13.724 72.4439 14.312 72.4439 14.996C72.4439 15.68 72.5819 16.28 72.8579 16.796C73.1459 17.312 73.5179 17.708 73.9739 17.984C74.4419 18.248 74.9339 18.38 75.4499 18.38C75.9779 18.38 76.4699 18.248 76.9259 17.984C77.3819 17.72 77.7479 17.336 78.0239 16.832C78.3119 16.316 78.4559 15.716 78.4559 15.032ZM85.6151 11.756V17.246C85.6151 17.618 85.6991 17.888 85.8671 18.056C86.0471 18.212 86.3471 18.29 86.7671 18.29H88.0271V20H86.4071C85.4831 20 84.7751 19.784 84.2831 19.352C83.7911 18.92 83.5451 18.218 83.5451 17.246V11.756H82.3751V10.082H83.5451V7.616H85.6151V10.082H88.0271V11.756H85.6151ZM93.9101 14.996C93.9101 14 94.1141 13.118 94.5221 12.35C94.9421 11.582 95.5061 10.988 96.2141 10.568C96.9341 10.136 97.7261 9.92 98.5901 9.92C99.3701 9.92 100.048 10.076 100.624 10.388C101.212 10.688 101.68 11.066 102.028 11.522V10.082H104.098V20H102.028V18.524C101.68 18.992 101.206 19.382 100.606 19.694C100.006 20.006 99.3221 20.162 98.5541 20.162C97.7021 20.162 96.9221 19.946 96.2141 19.514C95.5061 19.07 94.9421 18.458 94.5221 17.678C94.1141 16.886 93.9101 15.992 93.9101 14.996ZM102.028 15.032C102.028 14.348 101.884 13.754 101.596 13.25C101.32 12.746 100.954 12.362 100.498 12.098C100.042 11.834 99.5501 11.702 99.0221 11.702C98.4941 11.702 98.0021 11.834 97.5461 12.098C97.0901 12.35 96.7181 12.728 96.4301 13.232C96.1541 13.724 96.0161 14.312 96.0161 14.996C96.0161 15.68 96.1541 16.28 96.4301 16.796C96.7181 17.312 97.0901 17.708 97.5461 17.984C98.0141 18.248 98.5061 18.38 99.0221 18.38C99.5501 18.38 100.042 18.248 100.498 17.984C100.954 17.72 101.32 17.336 101.596 16.832C101.884 16.316 102.028 15.716 102.028 15.032ZM108.845 11.522C109.145 11.018 109.541 10.628 110.033 10.352C110.537 10.064 111.131 9.92 111.815 9.92V12.044H111.293C110.489 12.044 109.877 12.248 109.457 12.656C109.049 13.064 108.845 13.772 108.845 14.78V20H106.793V10.082H108.845V11.522ZM122.792 14.798C122.792 15.17 122.768 15.506 122.72 15.806H115.142C115.202 16.598 115.496 17.234 116.024 17.714C116.552 18.194 117.2 18.434 117.968 18.434C119.072 18.434 119.852 17.972 120.308 17.048H122.522C122.222 17.96 121.676 18.71 120.884 19.298C120.104 19.874 119.132 20.162 117.968 20.162C117.02 20.162 116.168 19.952 115.412 19.532C114.668 19.1 114.08 18.5 113.648 17.732C113.228 16.952 113.018 16.052 113.018 15.032C113.018 14.012 113.222 13.118 113.63 12.35C114.05 11.57 114.632 10.97 115.376 10.55C116.132 10.13 116.996 9.92 117.968 9.92C118.904 9.92 119.738 10.124 120.47 10.532C121.202 10.94 121.772 11.516 122.18 12.26C122.588 12.992 122.792 13.838 122.792 14.798ZM120.65 14.15C120.638 13.394 120.368 12.788 119.84 12.332C119.312 11.876 118.658 11.648 117.878 11.648C117.17 11.648 116.564 11.876 116.06 12.332C115.556 12.776 115.256 13.382 115.16 14.15H120.65ZM141.493 9.92C142.273 9.92 142.969 10.082 143.581 10.406C144.205 10.73 144.691 11.21 145.039 11.846C145.399 12.482 145.579 13.25 145.579 14.15V20H143.545V14.456C143.545 13.568 143.323 12.89 142.879 12.422C142.435 11.942 141.829 11.702 141.061 11.702C140.293 11.702 139.681 11.942 139.225 12.422C138.781 12.89 138.559 13.568 138.559 14.456V20H136.525V14.456C136.525 13.568 136.303 12.89 135.859 12.422C135.415 11.942 134.809 11.702 134.041 11.702C133.273 11.702 132.661 11.942 132.205 12.422C131.761 12.89 131.539 13.568 131.539 14.456V20H129.487V10.082H131.539V11.216C131.875 10.808 132.301 10.49 132.817 10.262C133.333 10.034 133.885 9.92 134.473 9.92C135.265 9.92 135.973 10.088 136.597 10.424C137.221 10.76 137.701 11.246 138.037 11.882C138.337 11.282 138.805 10.808 139.441 10.46C140.077 10.1 140.761 9.92 141.493 9.92ZM157.118 10.082L151.034 24.662H148.91L150.926 19.838L147.02 10.082H149.306L152.096 17.642L154.994 10.082H157.118ZM165.394 11.54C165.742 11.084 166.216 10.7 166.816 10.388C167.416 10.076 168.094 9.92 168.85 9.92C169.714 9.92 170.5 10.136 171.208 10.568C171.928 10.988 172.492 11.582 172.9 12.35C173.308 13.118 173.512 14 173.512 14.996C173.512 15.992 173.308 16.886 172.9 17.678C172.492 18.458 171.928 19.07 171.208 19.514C170.5 19.946 169.714 20.162 168.85 20.162C168.094 20.162 167.422 20.012 166.834 19.712C166.246 19.4 165.766 19.016 165.394 18.56V24.716H163.342V10.082H165.394V11.54ZM171.424 14.996C171.424 14.312 171.28 13.724 170.992 13.232C170.716 12.728 170.344 12.35 169.876 12.098C169.42 11.834 168.928 11.702 168.4 11.702C167.884 11.702 167.392 11.834 166.924 12.098C166.468 12.362 166.096 12.746 165.808 13.25C165.532 13.754 165.394 14.348 165.394 15.032C165.394 15.716 165.532 16.316 165.808 16.832C166.096 17.336 166.468 17.72 166.924 17.984C167.392 18.248 167.884 18.38 168.4 18.38C168.928 18.38 169.42 18.248 169.876 17.984C170.344 17.708 170.716 17.312 170.992 16.796C171.28 16.28 171.424 15.68 171.424 14.996ZM174.857 14.996C174.857 14 175.061 13.118 175.469 12.35C175.889 11.582 176.453 10.988 177.161 10.568C177.881 10.136 178.673 9.92 179.537 9.92C180.317 9.92 180.995 10.076 181.571 10.388C182.159 10.688 182.627 11.066 182.975 11.522V10.082H185.045V20H182.975V18.524C182.627 18.992 182.153 19.382 181.553 19.694C180.953 20.006 180.269 20.162 179.501 20.162C178.649 20.162 177.869 19.946 177.161 19.514C176.453 19.07 175.889 18.458 175.469 17.678C175.061 16.886 174.857 15.992 174.857 14.996ZM182.975 15.032C182.975 14.348 182.831 13.754 182.543 13.25C182.267 12.746 181.901 12.362 181.445 12.098C180.989 11.834 180.497 11.702 179.969 11.702C179.441 11.702 178.949 11.834 178.493 12.098C178.037 12.35 177.665 12.728 177.377 13.232C177.101 13.724 176.963 14.312 176.963 14.996C176.963 15.68 177.101 16.28 177.377 16.796C177.665 17.312 178.037 17.708 178.493 17.984C178.961 18.248 179.453 18.38 179.969 18.38C180.497 18.38 180.989 18.248 181.445 17.984C181.901 17.72 182.267 17.336 182.543 16.832C182.831 16.316 182.975 15.716 182.975 15.032ZM196.669 10.082L190.585 24.662H188.461L190.477 19.838L186.571 10.082H188.857L191.647 17.642L194.545 10.082H196.669ZM210.223 9.92C211.003 9.92 211.699 10.082 212.311 10.406C212.935 10.73 213.421 11.21 213.769 11.846C214.129 12.482 214.309 13.25 214.309 14.15V20H212.275V14.456C212.275 13.568 212.053 12.89 211.609 12.422C211.165 11.942 210.559 11.702 209.791 11.702C209.023 11.702 208.411 11.942 207.955 12.422C207.511 12.89 207.289 13.568 207.289 14.456V20H205.255V14.456C205.255 13.568 205.033 12.89 204.589 12.422C204.145 11.942 203.539 11.702 202.771 11.702C202.003 11.702 201.391 11.942 200.935 12.422C200.491 12.89 200.269 13.568 200.269 14.456V20H198.217V10.082H200.269V11.216C200.605 10.808 201.031 10.49 201.547 10.262C202.063 10.034 202.615 9.92 203.203 9.92C203.995 9.92 204.703 10.088 205.327 10.424C205.951 10.76 206.431 11.246 206.767 11.882C207.067 11.282 207.535 10.808 208.171 10.46C208.807 10.1 209.491 9.92 210.223 9.92ZM226.01 14.798C226.01 15.17 225.986 15.506 225.938 15.806H218.36C218.42 16.598 218.714 17.234 219.242 17.714C219.77 18.194 220.418 18.434 221.186 18.434C222.29 18.434 223.07 17.972 223.526 17.048H225.74C225.44 17.96 224.894 18.71 224.102 19.298C223.322 19.874 222.35 20.162 221.186 20.162C220.238 20.162 219.386 19.952 218.63 19.532C217.886 19.1 217.298 18.5 216.866 17.732C216.446 16.952 216.236 16.052 216.236 15.032C216.236 14.012 216.44 13.118 216.848 12.35C217.268 11.57 217.85 10.97 218.594 10.55C219.35 10.13 220.214 9.92 221.186 9.92C222.122 9.92 222.956 10.124 223.688 10.532C224.42 10.94 224.99 11.516 225.398 12.26C225.806 12.992 226.01 13.838 226.01 14.798ZM223.868 14.15C223.856 13.394 223.586 12.788 223.058 12.332C222.53 11.876 221.876 11.648 221.096 11.648C220.388 11.648 219.782 11.876 219.278 12.332C218.774 12.776 218.474 13.382 218.378 14.15H223.868ZM233.034 9.92C233.814 9.92 234.51 10.082 235.122 10.406C235.746 10.73 236.232 11.21 236.58 11.846C236.928 12.482 237.102 13.25 237.102 14.15V20H235.068V14.456C235.068 13.568 234.846 12.89 234.402 12.422C233.958 11.942 233.352 11.702 232.584 11.702C231.816 11.702 231.204 11.942 230.748 12.422C230.304 12.89 230.082 13.568 230.082 14.456V20H228.03V10.082H230.082V11.216C230.418 10.808 230.844 10.49 231.36 10.262C231.888 10.034 232.446 9.92 233.034 9.92ZM242.113 11.756V17.246C242.113 17.618 242.197 17.888 242.365 18.056C242.545 18.212 242.845 18.29 243.265 18.29H244.525V20H242.905C241.981 20 241.273 19.784 240.781 19.352C240.289 18.92 240.043 18.218 240.043 17.246V11.756H238.873V10.082H240.043V7.616H242.113V10.082H244.525V11.756H242.113ZM255.394 20.162C254.458 20.162 253.612 19.952 252.856 19.532C252.1 19.1 251.506 18.5 251.074 17.732C250.642 16.952 250.426 16.052 250.426 15.032C250.426 14.024 250.648 13.13 251.092 12.35C251.536 11.57 252.142 10.97 252.91 10.55C253.678 10.13 254.536 9.92 255.484 9.92C256.432 9.92 257.29 10.13 258.058 10.55C258.826 10.97 259.432 11.57 259.876 12.35C260.32 13.13 260.542 14.024 260.542 15.032C260.542 16.04 260.314 16.934 259.858 17.714C259.402 18.494 258.778 19.1 257.986 19.532C257.206 19.952 256.342 20.162 255.394 20.162ZM255.394 18.38C255.922 18.38 256.414 18.254 256.87 18.002C257.338 17.75 257.716 17.372 258.004 16.868C258.292 16.364 258.436 15.752 258.436 15.032C258.436 14.312 258.298 13.706 258.022 13.214C257.746 12.71 257.38 12.332 256.924 12.08C256.468 11.828 255.976 11.702 255.448 11.702C254.92 11.702 254.428 11.828 253.972 12.08C253.528 12.332 253.174 12.71 252.91 13.214C252.646 13.706 252.514 14.312 252.514 15.032C252.514 16.1 252.784 16.928 253.324 17.516C253.876 18.092 254.566 18.38 255.394 18.38ZM264.623 11.54C264.971 11.084 265.445 10.7 266.045 10.388C266.645 10.076 267.323 9.92 268.079 9.92C268.943 9.92 269.729 10.136 270.437 10.568C271.157 10.988 271.721 11.582 272.129 12.35C272.537 13.118 272.741 14 272.741 14.996C272.741 15.992 272.537 16.886 272.129 17.678C271.721 18.458 271.157 19.07 270.437 19.514C269.729 19.946 268.943 20.162 268.079 20.162C267.323 20.162 266.651 20.012 266.063 19.712C265.475 19.4 264.995 19.016 264.623 18.56V24.716H262.571V10.082H264.623V11.54ZM270.653 14.996C270.653 14.312 270.509 13.724 270.221 13.232C269.945 12.728 269.573 12.35 269.105 12.098C268.649 11.834 268.157 11.702 267.629 11.702C267.113 11.702 266.621 11.834 266.153 12.098C265.697 12.362 265.325 12.746 265.037 13.25C264.761 13.754 264.623 14.348 264.623 15.032C264.623 15.716 264.761 16.316 265.037 16.832C265.325 17.336 265.697 17.72 266.153 17.984C266.621 18.248 267.113 18.38 267.629 18.38C268.157 18.38 268.649 18.248 269.105 17.984C269.573 17.708 269.945 17.312 270.221 16.796C270.509 16.28 270.653 15.68 270.653 14.996ZM277.164 11.756V17.246C277.164 17.618 277.248 17.888 277.416 18.056C277.596 18.212 277.896 18.29 278.316 18.29H279.576V20H277.956C277.032 20 276.324 19.784 275.832 19.352C275.34 18.92 275.094 18.218 275.094 17.246V11.756H273.924V10.082H275.094V7.616H277.164V10.082H279.576V11.756H277.164ZM282.511 8.768C282.139 8.768 281.827 8.642 281.575 8.39C281.323 8.138 281.197 7.826 281.197 7.454C281.197 7.082 281.323 6.77 281.575 6.518C281.827 6.266 282.139 6.14 282.511 6.14C282.871 6.14 283.177 6.266 283.429 6.518C283.681 6.77 283.807 7.082 283.807 7.454C283.807 7.826 283.681 8.138 283.429 8.39C283.177 8.642 282.871 8.768 282.511 8.768ZM283.519 10.082V20H281.467V10.082H283.519ZM290.515 20.162C289.579 20.162 288.733 19.952 287.977 19.532C287.221 19.1 286.627 18.5 286.195 17.732C285.763 16.952 285.547 16.052 285.547 15.032C285.547 14.024 285.769 13.13 286.213 12.35C286.657 11.57 287.263 10.97 288.031 10.55C288.799 10.13 289.657 9.92 290.605 9.92C291.553 9.92 292.411 10.13 293.179 10.55C293.947 10.97 294.553 11.57 294.997 12.35C295.441 13.13 295.663 14.024 295.663 15.032C295.663 16.04 295.435 16.934 294.979 17.714C294.523 18.494 293.899 19.1 293.107 19.532C292.327 19.952 291.463 20.162 290.515 20.162ZM290.515 18.38C291.043 18.38 291.535 18.254 291.991 18.002C292.459 17.75 292.837 17.372 293.125 16.868C293.413 16.364 293.557 15.752 293.557 15.032C293.557 14.312 293.419 13.706 293.143 13.214C292.867 12.71 292.501 12.332 292.045 12.08C291.589 11.828 291.097 11.702 290.569 11.702C290.041 11.702 289.549 11.828 289.093 12.08C288.649 12.332 288.295 12.71 288.031 13.214C287.767 13.706 287.635 14.312 287.635 15.032C287.635 16.1 287.905 16.928 288.445 17.516C288.997 18.092 289.687 18.38 290.515 18.38ZM302.696 9.92C303.476 9.92 304.172 10.082 304.784 10.406C305.408 10.73 305.894 11.21 306.242 11.846C306.59 12.482 306.764 13.25 306.764 14.15V20H304.73V14.456C304.73 13.568 304.508 12.89 304.064 12.422C303.62 11.942 303.014 11.702 302.246 11.702C301.478 11.702 300.866 11.942 300.41 12.422C299.966 12.89 299.744 13.568 299.744 14.456V20H297.692V10.082H299.744V11.216C300.08 10.808 300.506 10.49 301.022 10.262C301.55 10.034 302.108 9.92 302.696 9.92ZM312.747 7.31C313.971 7.31 314.949 7.646 315.681 8.318C316.425 8.99 316.797 9.908 316.797 11.072C316.797 12.284 316.413 13.196 315.645 13.808C314.877 14.42 313.857 14.726 312.585 14.726L312.513 16.148H310.731L310.641 13.322H311.235C312.399 13.322 313.287 13.166 313.899 12.854C314.523 12.542 314.835 11.948 314.835 11.072C314.835 10.436 314.649 9.938 314.277 9.578C313.917 9.218 313.413 9.038 312.765 9.038C312.117 9.038 311.607 9.212 311.235 9.56C310.863 9.908 310.677 10.394 310.677 11.018H308.751C308.751 10.298 308.913 9.656 309.237 9.092C309.561 8.528 310.023 8.09 310.623 7.778C311.235 7.466 311.943 7.31 312.747 7.31ZM311.595 20.126C311.223 20.126 310.911 20 310.659 19.748C310.407 19.496 310.281 19.184 310.281 18.812C310.281 18.44 310.407 18.128 310.659 17.876C310.911 17.624 311.223 17.498 311.595 17.498C311.955 17.498 312.261 17.624 312.513 17.876C312.765 18.128 312.891 18.44 312.891 18.812C312.891 19.184 312.765 19.496 312.513 19.748C312.261 20 311.955 20.126 311.595 20.126Z" fill="white"/>
<line y1="48.5" x2="920" y2="48.5" stroke="#474747"/>
<path fill-rule="evenodd" clip-rule="evenodd" d="M0 13C0 6.376 5.376 1 12 1C18.624 1 24 6.376 24 13C24 19.624 18.624 25 12 25C5.376 25 0 19.624 0 13ZM13.2 14.2H18V11.8H13.2V7H10.8V11.8H6V14.2H10.8V19H13.2V14.2Z" fill="#02897A"/>
</svg>
