<svg width="920" height="49" viewBox="0 0 920 49" fill="none" xmlns="http://www.w3.org/2000/svg">
<path d="M40.666 13.718C40.666 12.494 40.948 11.396 41.512 10.424C42.088 9.452 42.862 8.696 43.834 8.156C44.818 7.604 45.892 7.328 47.056 7.328C48.388 7.328 49.57 7.658 50.602 8.318C51.646 8.966 52.402 9.89 52.87 11.09H50.404C50.08 10.43 49.63 9.938 49.054 9.614C48.478 9.29 47.812 9.128 47.056 9.128C46.228 9.128 45.49 9.314 44.842 9.686C44.194 10.058 43.684 10.592 43.312 11.288C42.952 11.984 42.772 12.794 42.772 13.718C42.772 14.642 42.952 15.452 43.312 16.148C43.684 16.844 44.194 17.384 44.842 17.768C45.49 18.14 46.228 18.326 47.056 18.326C47.812 18.326 48.478 18.164 49.054 17.84C49.63 17.516 50.08 17.024 50.404 16.364H52.87C52.402 17.564 51.646 18.488 50.602 19.136C49.57 19.784 48.388 20.108 47.056 20.108C45.88 20.108 44.806 19.838 43.834 19.298C42.862 18.746 42.088 17.984 41.512 17.012C40.948 16.04 40.666 14.942 40.666 13.718ZM54.5879 14.996C54.5879 14 54.7919 13.118 55.1999 12.35C55.6199 11.582 56.1839 10.988 56.8919 10.568C57.6119 10.136 58.4039 9.92 59.2679 9.92C60.0479 9.92 60.7259 10.076 61.3019 10.388C61.8899 10.688 62.3579 11.066 62.7059 11.522V10.082H64.7759V20H62.7059V18.524C62.3579 18.992 61.8839 19.382 61.2839 19.694C60.6839 20.006 59.9999 20.162 59.2319 20.162C58.3799 20.162 57.5999 19.946 56.8919 19.514C56.1839 19.07 55.6199 18.458 55.1999 17.678C54.7919 16.886 54.5879 15.992 54.5879 14.996ZM62.7059 15.032C62.7059 14.348 62.5619 13.754 62.2739 13.25C61.9979 12.746 61.6319 12.362 61.1759 12.098C60.7199 11.834 60.2279 11.702 59.6999 11.702C59.1719 11.702 58.6799 11.834 58.2239 12.098C57.7679 12.35 57.3959 12.728 57.1079 13.232C56.8319 13.724 56.6939 14.312 56.6939 14.996C56.6939 15.68 56.8319 16.28 57.1079 16.796C57.3959 17.312 57.7679 17.708 58.2239 17.984C58.6919 18.248 59.1839 18.38 59.6999 18.38C60.2279 18.38 60.7199 18.248 61.1759 17.984C61.6319 17.72 61.9979 17.336 62.2739 16.832C62.5619 16.316 62.7059 15.716 62.7059 15.032ZM72.4751 9.92C73.2551 9.92 73.9511 10.082 74.5631 10.406C75.1871 10.73 75.6731 11.21 76.0211 11.846C76.3691 12.482 76.5431 13.25 76.5431 14.15V20H74.5091V14.456C74.5091 13.568 74.2871 12.89 73.8431 12.422C73.3991 11.942 72.7931 11.702 72.0251 11.702C71.2571 11.702 70.6451 11.942 70.1891 12.422C69.7451 12.89 69.5231 13.568 69.5231 14.456V20H67.4711V10.082H69.5231V11.216C69.8591 10.808 70.2851 10.49 70.8011 10.262C71.3291 10.034 71.8871 9.92 72.4751 9.92ZM85.8883 7.49V20H83.8363V7.49H85.8883ZM102.24 10.082V20H100.188V18.83C99.8642 19.238 99.4382 19.562 98.9102 19.802C98.3942 20.03 97.8422 20.144 97.2542 20.144C96.4742 20.144 95.7722 19.982 95.1482 19.658C94.5362 19.334 94.0502 18.854 93.6902 18.218C93.3422 17.582 93.1682 16.814 93.1682 15.914V10.082H95.2022V15.608C95.2022 16.496 95.4242 17.18 95.8682 17.66C96.3122 18.128 96.9182 18.362 97.6862 18.362C98.4542 18.362 99.0602 18.128 99.5042 17.66C99.9602 17.18 100.188 16.496 100.188 15.608V10.082H102.24ZM107 11.54C107.348 11.084 107.822 10.7 108.422 10.388C109.022 10.076 109.7 9.92 110.456 9.92C111.32 9.92 112.106 10.136 112.814 10.568C113.534 10.988 114.098 11.582 114.506 12.35C114.914 13.118 115.118 14 115.118 14.996C115.118 15.992 114.914 16.886 114.506 17.678C114.098 18.458 113.534 19.07 112.814 19.514C112.106 19.946 111.32 20.162 110.456 20.162C109.7 20.162 109.028 20.012 108.44 19.712C107.852 19.4 107.372 19.016 107 18.56V24.716H104.948V10.082H107V11.54ZM113.03 14.996C113.03 14.312 112.886 13.724 112.598 13.232C112.322 12.728 111.95 12.35 111.482 12.098C111.026 11.834 110.534 11.702 110.006 11.702C109.49 11.702 108.998 11.834 108.53 12.098C108.074 12.362 107.702 12.746 107.414 13.25C107.138 13.754 107 14.348 107 15.032C107 15.716 107.138 16.316 107.414 16.832C107.702 17.336 108.074 17.72 108.53 17.984C108.998 18.248 109.49 18.38 110.006 18.38C110.534 18.38 111.026 18.248 111.482 17.984C111.95 17.708 112.322 17.312 112.598 16.796C112.886 16.28 113.03 15.68 113.03 14.996ZM121.143 9.92C121.911 9.92 122.589 10.076 123.177 10.388C123.777 10.688 124.245 11.066 124.581 11.522V10.082H126.651V20.162C126.651 21.074 126.459 21.884 126.075 22.592C125.691 23.312 125.133 23.876 124.401 24.284C123.681 24.692 122.817 24.896 121.809 24.896C120.465 24.896 119.349 24.578 118.461 23.942C117.573 23.318 117.069 22.466 116.949 21.386H118.983C119.139 21.902 119.469 22.316 119.973 22.628C120.489 22.952 121.101 23.114 121.809 23.114C122.637 23.114 123.303 22.862 123.807 22.358C124.323 21.854 124.581 21.122 124.581 20.162V18.506C124.233 18.974 123.759 19.37 123.159 19.694C122.571 20.006 121.899 20.162 121.143 20.162C120.279 20.162 119.487 19.946 118.767 19.514C118.059 19.07 117.495 18.458 117.075 17.678C116.667 16.886 116.463 15.992 116.463 14.996C116.463 14 116.667 13.118 117.075 12.35C117.495 11.582 118.059 10.988 118.767 10.568C119.487 10.136 120.279 9.92 121.143 9.92ZM124.581 15.032C124.581 14.348 124.437 13.754 124.149 13.25C123.873 12.746 123.507 12.362 123.051 12.098C122.595 11.834 122.103 11.702 121.575 11.702C121.047 11.702 120.555 11.834 120.099 12.098C119.643 12.35 119.271 12.728 118.983 13.232C118.707 13.724 118.569 14.312 118.569 14.996C118.569 15.68 118.707 16.28 118.983 16.796C119.271 17.312 119.643 17.708 120.099 17.984C120.567 18.248 121.059 18.38 121.575 18.38C122.103 18.38 122.595 18.248 123.051 17.984C123.507 17.72 123.873 17.336 124.149 16.832C124.437 16.316 124.581 15.716 124.581 15.032ZM131.398 11.522C131.698 11.018 132.094 10.628 132.586 10.352C133.09 10.064 133.684 9.92 134.368 9.92V12.044H133.846C133.042 12.044 132.43 12.248 132.01 12.656C131.602 13.064 131.398 13.772 131.398 14.78V20H129.346V10.082H131.398V11.522ZM135.57 14.996C135.57 14 135.774 13.118 136.182 12.35C136.602 11.582 137.166 10.988 137.874 10.568C138.594 10.136 139.386 9.92 140.25 9.92C141.03 9.92 141.708 10.076 142.284 10.388C142.872 10.688 143.34 11.066 143.688 11.522V10.082H145.758V20H143.688V18.524C143.34 18.992 142.866 19.382 142.266 19.694C141.666 20.006 140.982 20.162 140.214 20.162C139.362 20.162 138.582 19.946 137.874 19.514C137.166 19.07 136.602 18.458 136.182 17.678C135.774 16.886 135.57 15.992 135.57 14.996ZM143.688 15.032C143.688 14.348 143.544 13.754 143.256 13.25C142.98 12.746 142.614 12.362 142.158 12.098C141.702 11.834 141.21 11.702 140.682 11.702C140.154 11.702 139.662 11.834 139.206 12.098C138.75 12.35 138.378 12.728 138.09 13.232C137.814 13.724 137.676 14.312 137.676 14.996C137.676 15.68 137.814 16.28 138.09 16.796C138.378 17.312 138.75 17.708 139.206 17.984C139.674 18.248 140.166 18.38 140.682 18.38C141.21 18.38 141.702 18.248 142.158 17.984C142.614 17.72 142.98 17.336 143.256 16.832C143.544 16.316 143.688 15.716 143.688 15.032ZM147.77 14.996C147.77 14 147.974 13.118 148.382 12.35C148.802 11.582 149.366 10.988 150.074 10.568C150.794 10.136 151.592 9.92 152.468 9.92C153.116 9.92 153.752 10.064 154.376 10.352C155.012 10.628 155.516 11 155.888 11.468V6.68H157.958V20H155.888V18.506C155.552 18.986 155.084 19.382 154.484 19.694C153.896 20.006 153.218 20.162 152.45 20.162C151.586 20.162 150.794 19.946 150.074 19.514C149.366 19.07 148.802 18.458 148.382 17.678C147.974 16.886 147.77 15.992 147.77 14.996ZM155.888 15.032C155.888 14.348 155.744 13.754 155.456 13.25C155.18 12.746 154.814 12.362 154.358 12.098C153.902 11.834 153.41 11.702 152.882 11.702C152.354 11.702 151.862 11.834 151.406 12.098C150.95 12.35 150.578 12.728 150.29 13.232C150.014 13.724 149.876 14.312 149.876 14.996C149.876 15.68 150.014 16.28 150.29 16.796C150.578 17.312 150.95 17.708 151.406 17.984C151.874 18.248 152.366 18.38 152.882 18.38C153.41 18.38 153.902 18.248 154.358 17.984C154.814 17.72 155.18 17.336 155.456 16.832C155.744 16.316 155.888 15.716 155.888 15.032ZM169.743 14.798C169.743 15.17 169.719 15.506 169.671 15.806H162.093C162.153 16.598 162.447 17.234 162.975 17.714C163.503 18.194 164.151 18.434 164.919 18.434C166.023 18.434 166.803 17.972 167.259 17.048H169.473C169.173 17.96 168.627 18.71 167.835 19.298C167.055 19.874 166.083 20.162 164.919 20.162C163.971 20.162 163.119 19.952 162.363 19.532C161.619 19.1 161.031 18.5 160.599 17.732C160.179 16.952 159.969 16.052 159.969 15.032C159.969 14.012 160.173 13.118 160.581 12.35C161.001 11.57 161.583 10.97 162.327 10.55C163.083 10.13 163.947 9.92 164.919 9.92C165.855 9.92 166.689 10.124 167.421 10.532C168.153 10.94 168.723 11.516 169.131 12.26C169.539 12.992 169.743 13.838 169.743 14.798ZM167.601 14.15C167.589 13.394 167.319 12.788 166.791 12.332C166.263 11.876 165.609 11.648 164.829 11.648C164.121 11.648 163.515 11.876 163.011 12.332C162.507 12.776 162.207 13.382 162.111 14.15H167.601ZM188.444 9.92C189.224 9.92 189.92 10.082 190.532 10.406C191.156 10.73 191.642 11.21 191.99 11.846C192.35 12.482 192.53 13.25 192.53 14.15V20H190.496V14.456C190.496 13.568 190.274 12.89 189.83 12.422C189.386 11.942 188.78 11.702 188.012 11.702C187.244 11.702 186.632 11.942 186.176 12.422C185.732 12.89 185.51 13.568 185.51 14.456V20H183.476V14.456C183.476 13.568 183.254 12.89 182.81 12.422C182.366 11.942 181.76 11.702 180.992 11.702C180.224 11.702 179.612 11.942 179.156 12.422C178.712 12.89 178.49 13.568 178.49 14.456V20H176.438V10.082H178.49V11.216C178.826 10.808 179.252 10.49 179.768 10.262C180.284 10.034 180.836 9.92 181.424 9.92C182.216 9.92 182.924 10.088 183.548 10.424C184.172 10.76 184.652 11.246 184.988 11.882C185.288 11.282 185.756 10.808 186.392 10.46C187.028 10.1 187.712 9.92 188.444 9.92ZM204.069 10.082L197.985 24.662H195.861L197.877 19.838L193.971 10.082H196.257L199.047 17.642L201.945 10.082H204.069ZM212.345 11.54C212.693 11.084 213.167 10.7 213.767 10.388C214.367 10.076 215.045 9.92 215.801 9.92C216.665 9.92 217.451 10.136 218.159 10.568C218.879 10.988 219.443 11.582 219.851 12.35C220.259 13.118 220.463 14 220.463 14.996C220.463 15.992 220.259 16.886 219.851 17.678C219.443 18.458 218.879 19.07 218.159 19.514C217.451 19.946 216.665 20.162 215.801 20.162C215.045 20.162 214.373 20.012 213.785 19.712C213.197 19.4 212.717 19.016 212.345 18.56V24.716H210.293V10.082H212.345V11.54ZM218.375 14.996C218.375 14.312 218.231 13.724 217.943 13.232C217.667 12.728 217.295 12.35 216.827 12.098C216.371 11.834 215.879 11.702 215.351 11.702C214.835 11.702 214.343 11.834 213.875 12.098C213.419 12.362 213.047 12.746 212.759 13.25C212.483 13.754 212.345 14.348 212.345 15.032C212.345 15.716 212.483 16.316 212.759 16.832C213.047 17.336 213.419 17.72 213.875 17.984C214.343 18.248 214.835 18.38 215.351 18.38C215.879 18.38 216.371 18.248 216.827 17.984C217.295 17.708 217.667 17.312 217.943 16.796C218.231 16.28 218.375 15.68 218.375 14.996ZM224.545 6.68V20H222.493V6.68H224.545ZM226.555 14.996C226.555 14 226.759 13.118 227.167 12.35C227.587 11.582 228.151 10.988 228.859 10.568C229.579 10.136 230.371 9.92 231.235 9.92C232.015 9.92 232.693 10.076 233.269 10.388C233.857 10.688 234.325 11.066 234.673 11.522V10.082H236.743V20H234.673V18.524C234.325 18.992 233.851 19.382 233.251 19.694C232.651 20.006 231.967 20.162 231.199 20.162C230.347 20.162 229.567 19.946 228.859 19.514C228.151 19.07 227.587 18.458 227.167 17.678C226.759 16.886 226.555 15.992 226.555 14.996ZM234.673 15.032C234.673 14.348 234.529 13.754 234.241 13.25C233.965 12.746 233.599 12.362 233.143 12.098C232.687 11.834 232.195 11.702 231.667 11.702C231.139 11.702 230.647 11.834 230.191 12.098C229.735 12.35 229.363 12.728 229.075 13.232C228.799 13.724 228.661 14.312 228.661 14.996C228.661 15.68 228.799 16.28 229.075 16.796C229.363 17.312 229.735 17.708 230.191 17.984C230.659 18.248 231.151 18.38 231.667 18.38C232.195 18.38 232.687 18.248 233.143 17.984C233.599 17.72 233.965 17.336 234.241 16.832C234.529 16.316 234.673 15.716 234.673 15.032ZM244.442 9.92C245.222 9.92 245.918 10.082 246.53 10.406C247.154 10.73 247.64 11.21 247.988 11.846C248.336 12.482 248.51 13.25 248.51 14.15V20H246.476V14.456C246.476 13.568 246.254 12.89 245.81 12.422C245.366 11.942 244.76 11.702 243.992 11.702C243.224 11.702 242.612 11.942 242.156 12.422C241.712 12.89 241.49 13.568 241.49 14.456V20H239.438V10.082H241.49V11.216C241.826 10.808 242.252 10.49 242.768 10.262C243.296 10.034 243.854 9.92 244.442 9.92ZM254.493 7.31C255.717 7.31 256.695 7.646 257.427 8.318C258.171 8.99 258.543 9.908 258.543 11.072C258.543 12.284 258.159 13.196 257.391 13.808C256.623 14.42 255.603 14.726 254.331 14.726L254.259 16.148H252.477L252.387 13.322H252.981C254.145 13.322 255.033 13.166 255.645 12.854C256.269 12.542 256.581 11.948 256.581 11.072C256.581 10.436 256.395 9.938 256.023 9.578C255.663 9.218 255.159 9.038 254.511 9.038C253.863 9.038 253.353 9.212 252.981 9.56C252.609 9.908 252.423 10.394 252.423 11.018H250.497C250.497 10.298 250.659 9.656 250.983 9.092C251.307 8.528 251.769 8.09 252.369 7.778C252.981 7.466 253.689 7.31 254.493 7.31ZM253.341 20.126C252.969 20.126 252.657 20 252.405 19.748C252.153 19.496 252.027 19.184 252.027 18.812C252.027 18.44 252.153 18.128 252.405 17.876C252.657 17.624 252.969 17.498 253.341 17.498C253.701 17.498 254.007 17.624 254.259 17.876C254.511 18.128 254.637 18.44 254.637 18.812C254.637 19.184 254.511 19.496 254.259 19.748C254.007 20 253.701 20.126 253.341 20.126Z" fill="#22343D"/>
<line y1="48.5" x2="920" y2="48.5" stroke="#474747"/>
<path fill-rule="evenodd" clip-rule="evenodd" d="M0 13C0 6.376 5.376 1 12 1C18.624 1 24 6.376 24 13C24 19.624 18.624 25 12 25C5.376 25 0 19.624 0 13ZM13.2 14.2H18V11.8H13.2V7H10.8V11.8H6V14.2H10.8V19H13.2V14.2Z" fill="#02897A"/>
</svg>
