<svg width="920" height="49" viewBox="0 0 920 49" fill="none" xmlns="http://www.w3.org/2000/svg">
<path d="M40.666 13.718C40.666 12.494 40.948 11.396 41.512 10.424C42.088 9.452 42.862 8.696 43.834 8.156C44.818 7.604 45.892 7.328 47.056 7.328C48.388 7.328 49.57 7.658 50.602 8.318C51.646 8.966 52.402 9.89 52.87 11.09H50.404C50.08 10.43 49.63 9.938 49.054 9.614C48.478 9.29 47.812 9.128 47.056 9.128C46.228 9.128 45.49 9.314 44.842 9.686C44.194 10.058 43.684 10.592 43.312 11.288C42.952 11.984 42.772 12.794 42.772 13.718C42.772 14.642 42.952 15.452 43.312 16.148C43.684 16.844 44.194 17.384 44.842 17.768C45.49 18.14 46.228 18.326 47.056 18.326C47.812 18.326 48.478 18.164 49.054 17.84C49.63 17.516 50.08 17.024 50.404 16.364H52.87C52.402 17.564 51.646 18.488 50.602 19.136C49.57 19.784 48.388 20.108 47.056 20.108C45.88 20.108 44.806 19.838 43.834 19.298C42.862 18.746 42.088 17.984 41.512 17.012C40.948 16.04 40.666 14.942 40.666 13.718ZM54.5879 14.996C54.5879 14 54.7919 13.118 55.1999 12.35C55.6199 11.582 56.1839 10.988 56.8919 10.568C57.6119 10.136 58.4039 9.92 59.2679 9.92C60.0479 9.92 60.7259 10.076 61.3019 10.388C61.8899 10.688 62.3579 11.066 62.7059 11.522V10.082H64.7759V20H62.7059V18.524C62.3579 18.992 61.8839 19.382 61.2839 19.694C60.6839 20.006 59.9999 20.162 59.2319 20.162C58.3799 20.162 57.5999 19.946 56.8919 19.514C56.1839 19.07 55.6199 18.458 55.1999 17.678C54.7919 16.886 54.5879 15.992 54.5879 14.996ZM62.7059 15.032C62.7059 14.348 62.5619 13.754 62.2739 13.25C61.9979 12.746 61.6319 12.362 61.1759 12.098C60.7199 11.834 60.2279 11.702 59.6999 11.702C59.1719 11.702 58.6799 11.834 58.2239 12.098C57.7679 12.35 57.3959 12.728 57.1079 13.232C56.8319 13.724 56.6939 14.312 56.6939 14.996C56.6939 15.68 56.8319 16.28 57.1079 16.796C57.3959 17.312 57.7679 17.708 58.2239 17.984C58.6919 18.248 59.1839 18.38 59.6999 18.38C60.2279 18.38 60.7199 18.248 61.1759 17.984C61.6319 17.72 61.9979 17.336 62.2739 16.832C62.5619 16.316 62.7059 15.716 62.7059 15.032ZM72.4751 9.92C73.2551 9.92 73.9511 10.082 74.5631 10.406C75.1871 10.73 75.6731 11.21 76.0211 11.846C76.3691 12.482 76.5431 13.25 76.5431 14.15V20H74.5091V14.456C74.5091 13.568 74.2871 12.89 73.8431 12.422C73.3991 11.942 72.7931 11.702 72.0251 11.702C71.2571 11.702 70.6451 11.942 70.1891 12.422C69.7451 12.89 69.5231 13.568 69.5231 14.456V20H67.4711V10.082H69.5231V11.216C69.8591 10.808 70.2851 10.49 70.8011 10.262C71.3291 10.034 71.8871 9.92 72.4751 9.92ZM85.8883 7.49V20H83.8363V7.49H85.8883ZM92.5742 15.032C92.5742 14.012 92.7782 13.118 93.1862 12.35C93.6062 11.57 94.1822 10.97 94.9142 10.55C95.6462 10.13 96.4862 9.92 97.4342 9.92C98.6342 9.92 99.6242 10.208 100.404 10.784C101.196 11.348 101.73 12.158 102.006 13.214H99.7922C99.6122 12.722 99.3242 12.338 98.9282 12.062C98.5322 11.786 98.0342 11.648 97.4342 11.648C96.5942 11.648 95.9222 11.948 95.4182 12.548C94.9262 13.136 94.6802 13.964 94.6802 15.032C94.6802 16.1 94.9262 16.934 95.4182 17.534C95.9222 18.134 96.5942 18.434 97.4342 18.434C98.6222 18.434 99.4082 17.912 99.7922 16.868H102.006C101.718 17.876 101.178 18.68 100.386 19.28C99.5942 19.868 98.6102 20.162 97.4342 20.162C96.4862 20.162 95.6462 19.952 94.9142 19.532C94.1822 19.1 93.6062 18.5 93.1862 17.732C92.7782 16.952 92.5742 16.052 92.5742 15.032ZM103.367 14.996C103.367 14 103.571 13.118 103.979 12.35C104.399 11.582 104.963 10.988 105.671 10.568C106.391 10.136 107.183 9.92 108.047 9.92C108.827 9.92 109.505 10.076 110.081 10.388C110.669 10.688 111.137 11.066 111.485 11.522V10.082H113.555V20H111.485V18.524C111.137 18.992 110.663 19.382 110.063 19.694C109.463 20.006 108.779 20.162 108.011 20.162C107.159 20.162 106.379 19.946 105.671 19.514C104.963 19.07 104.399 18.458 103.979 17.678C103.571 16.886 103.367 15.992 103.367 14.996ZM111.485 15.032C111.485 14.348 111.341 13.754 111.053 13.25C110.777 12.746 110.411 12.362 109.955 12.098C109.499 11.834 109.007 11.702 108.479 11.702C107.951 11.702 107.459 11.834 107.003 12.098C106.547 12.35 106.175 12.728 105.887 13.232C105.611 13.724 105.473 14.312 105.473 14.996C105.473 15.68 105.611 16.28 105.887 16.796C106.175 17.312 106.547 17.708 107.003 17.984C107.471 18.248 107.963 18.38 108.479 18.38C109.007 18.38 109.499 18.248 109.955 17.984C110.411 17.72 110.777 17.336 111.053 16.832C111.341 16.316 111.485 15.716 111.485 15.032ZM121.254 9.92C122.034 9.92 122.73 10.082 123.342 10.406C123.966 10.73 124.452 11.21 124.8 11.846C125.148 12.482 125.322 13.25 125.322 14.15V20H123.288V14.456C123.288 13.568 123.066 12.89 122.622 12.422C122.178 11.942 121.572 11.702 120.804 11.702C120.036 11.702 119.424 11.942 118.968 12.422C118.524 12.89 118.302 13.568 118.302 14.456V20H116.25V10.082H118.302V11.216C118.638 10.808 119.064 10.49 119.58 10.262C120.108 10.034 120.666 9.92 121.254 9.92ZM127.256 15.032C127.256 14.012 127.46 13.118 127.868 12.35C128.288 11.57 128.864 10.97 129.596 10.55C130.328 10.13 131.168 9.92 132.116 9.92C133.316 9.92 134.306 10.208 135.086 10.784C135.878 11.348 136.412 12.158 136.688 13.214H134.474C134.294 12.722 134.006 12.338 133.61 12.062C133.214 11.786 132.716 11.648 132.116 11.648C131.276 11.648 130.604 11.948 130.1 12.548C129.608 13.136 129.362 13.964 129.362 15.032C129.362 16.1 129.608 16.934 130.1 17.534C130.604 18.134 131.276 18.434 132.116 18.434C133.304 18.434 134.09 17.912 134.474 16.868H136.688C136.4 17.876 135.86 18.68 135.068 19.28C134.276 19.868 133.292 20.162 132.116 20.162C131.168 20.162 130.328 19.952 129.596 19.532C128.864 19.1 128.288 18.5 127.868 17.732C127.46 16.952 127.256 16.052 127.256 15.032ZM147.823 14.798C147.823 15.17 147.799 15.506 147.751 15.806H140.173C140.233 16.598 140.527 17.234 141.055 17.714C141.583 18.194 142.231 18.434 142.999 18.434C144.103 18.434 144.883 17.972 145.339 17.048H147.553C147.253 17.96 146.707 18.71 145.915 19.298C145.135 19.874 144.163 20.162 142.999 20.162C142.051 20.162 141.199 19.952 140.443 19.532C139.699 19.1 139.111 18.5 138.679 17.732C138.259 16.952 138.049 16.052 138.049 15.032C138.049 14.012 138.253 13.118 138.661 12.35C139.081 11.57 139.663 10.97 140.407 10.55C141.163 10.13 142.027 9.92 142.999 9.92C143.935 9.92 144.769 10.124 145.501 10.532C146.233 10.94 146.803 11.516 147.211 12.26C147.619 12.992 147.823 13.838 147.823 14.798ZM145.681 14.15C145.669 13.394 145.399 12.788 144.871 12.332C144.343 11.876 143.689 11.648 142.909 11.648C142.201 11.648 141.595 11.876 141.091 12.332C140.587 12.776 140.287 13.382 140.191 14.15H145.681ZM151.894 6.68V20H149.842V6.68H151.894ZM171.27 9.92C172.05 9.92 172.746 10.082 173.358 10.406C173.982 10.73 174.468 11.21 174.816 11.846C175.176 12.482 175.356 13.25 175.356 14.15V20H173.322V14.456C173.322 13.568 173.1 12.89 172.656 12.422C172.212 11.942 171.606 11.702 170.838 11.702C170.07 11.702 169.458 11.942 169.002 12.422C168.558 12.89 168.336 13.568 168.336 14.456V20H166.302V14.456C166.302 13.568 166.08 12.89 165.636 12.422C165.192 11.942 164.586 11.702 163.818 11.702C163.05 11.702 162.438 11.942 161.982 12.422C161.538 12.89 161.316 13.568 161.316 14.456V20H159.264V10.082H161.316V11.216C161.652 10.808 162.078 10.49 162.594 10.262C163.11 10.034 163.662 9.92 164.25 9.92C165.042 9.92 165.75 10.088 166.374 10.424C166.998 10.76 167.478 11.246 167.814 11.882C168.114 11.282 168.582 10.808 169.218 10.46C169.854 10.1 170.538 9.92 171.27 9.92ZM186.895 10.082L180.811 24.662H178.687L180.703 19.838L176.797 10.082H179.083L181.873 17.642L184.771 10.082H186.895ZM195.172 11.54C195.52 11.084 195.994 10.7 196.594 10.388C197.194 10.076 197.872 9.92 198.628 9.92C199.492 9.92 200.278 10.136 200.986 10.568C201.706 10.988 202.27 11.582 202.678 12.35C203.086 13.118 203.29 14 203.29 14.996C203.29 15.992 203.086 16.886 202.678 17.678C202.27 18.458 201.706 19.07 200.986 19.514C200.278 19.946 199.492 20.162 198.628 20.162C197.872 20.162 197.2 20.012 196.612 19.712C196.024 19.4 195.544 19.016 195.172 18.56V24.716H193.12V10.082H195.172V11.54ZM201.202 14.996C201.202 14.312 201.058 13.724 200.77 13.232C200.494 12.728 200.122 12.35 199.654 12.098C199.198 11.834 198.706 11.702 198.178 11.702C197.662 11.702 197.17 11.834 196.702 12.098C196.246 12.362 195.874 12.746 195.586 13.25C195.31 13.754 195.172 14.348 195.172 15.032C195.172 15.716 195.31 16.316 195.586 16.832C195.874 17.336 196.246 17.72 196.702 17.984C197.17 18.248 197.662 18.38 198.178 18.38C198.706 18.38 199.198 18.248 199.654 17.984C200.122 17.708 200.494 17.312 200.77 16.796C201.058 16.28 201.202 15.68 201.202 14.996ZM207.371 6.68V20H205.319V6.68H207.371ZM209.381 14.996C209.381 14 209.585 13.118 209.993 12.35C210.413 11.582 210.977 10.988 211.685 10.568C212.405 10.136 213.197 9.92 214.061 9.92C214.841 9.92 215.519 10.076 216.095 10.388C216.683 10.688 217.151 11.066 217.499 11.522V10.082H219.569V20H217.499V18.524C217.151 18.992 216.677 19.382 216.077 19.694C215.477 20.006 214.793 20.162 214.025 20.162C213.173 20.162 212.393 19.946 211.685 19.514C210.977 19.07 210.413 18.458 209.993 17.678C209.585 16.886 209.381 15.992 209.381 14.996ZM217.499 15.032C217.499 14.348 217.355 13.754 217.067 13.25C216.791 12.746 216.425 12.362 215.969 12.098C215.513 11.834 215.021 11.702 214.493 11.702C213.965 11.702 213.473 11.834 213.017 12.098C212.561 12.35 212.189 12.728 211.901 13.232C211.625 13.724 211.487 14.312 211.487 14.996C211.487 15.68 211.625 16.28 211.901 16.796C212.189 17.312 212.561 17.708 213.017 17.984C213.485 18.248 213.977 18.38 214.493 18.38C215.021 18.38 215.513 18.248 215.969 17.984C216.425 17.72 216.791 17.336 217.067 16.832C217.355 16.316 217.499 15.716 217.499 15.032ZM227.268 9.92C228.048 9.92 228.744 10.082 229.356 10.406C229.98 10.73 230.466 11.21 230.814 11.846C231.162 12.482 231.336 13.25 231.336 14.15V20H229.302V14.456C229.302 13.568 229.08 12.89 228.636 12.422C228.192 11.942 227.586 11.702 226.818 11.702C226.05 11.702 225.438 11.942 224.982 12.422C224.538 12.89 224.316 13.568 224.316 14.456V20H222.264V10.082H224.316V11.216C224.652 10.808 225.078 10.49 225.594 10.262C226.122 10.034 226.68 9.92 227.268 9.92ZM237.945 14.996C237.945 14 238.149 13.118 238.557 12.35C238.977 11.582 239.541 10.988 240.249 10.568C240.969 10.136 241.761 9.92 242.625 9.92C243.405 9.92 244.083 10.076 244.659 10.388C245.247 10.688 245.715 11.066 246.063 11.522V10.082H248.133V20H246.063V18.524C245.715 18.992 245.241 19.382 244.641 19.694C244.041 20.006 243.357 20.162 242.589 20.162C241.737 20.162 240.957 19.946 240.249 19.514C239.541 19.07 238.977 18.458 238.557 17.678C238.149 16.886 237.945 15.992 237.945 14.996ZM246.063 15.032C246.063 14.348 245.919 13.754 245.631 13.25C245.355 12.746 244.989 12.362 244.533 12.098C244.077 11.834 243.585 11.702 243.057 11.702C242.529 11.702 242.037 11.834 241.581 12.098C241.125 12.35 240.753 12.728 240.465 13.232C240.189 13.724 240.051 14.312 240.051 14.996C240.051 15.68 240.189 16.28 240.465 16.796C240.753 17.312 241.125 17.708 241.581 17.984C242.049 18.248 242.541 18.38 243.057 18.38C243.585 18.38 244.077 18.248 244.533 17.984C244.989 17.72 245.355 17.336 245.631 16.832C245.919 16.316 246.063 15.716 246.063 15.032ZM253.223 11.756V17.246C253.223 17.618 253.307 17.888 253.475 18.056C253.655 18.212 253.955 18.29 254.375 18.29H255.635V20H254.015C253.091 20 252.383 19.784 251.891 19.352C251.399 18.92 251.153 18.218 251.153 17.246V11.756H249.983V10.082H251.153V7.616H253.223V10.082H255.635V11.756H253.223ZM261.518 14.996C261.518 14 261.722 13.118 262.13 12.35C262.55 11.582 263.114 10.988 263.822 10.568C264.542 10.136 265.334 9.92 266.198 9.92C266.978 9.92 267.656 10.076 268.232 10.388C268.82 10.688 269.288 11.066 269.636 11.522V10.082H271.706V20H269.636V18.524C269.288 18.992 268.814 19.382 268.214 19.694C267.614 20.006 266.93 20.162 266.162 20.162C265.31 20.162 264.53 19.946 263.822 19.514C263.114 19.07 262.55 18.458 262.13 17.678C261.722 16.886 261.518 15.992 261.518 14.996ZM269.636 15.032C269.636 14.348 269.492 13.754 269.204 13.25C268.928 12.746 268.562 12.362 268.106 12.098C267.65 11.834 267.158 11.702 266.63 11.702C266.102 11.702 265.61 11.834 265.154 12.098C264.698 12.35 264.326 12.728 264.038 13.232C263.762 13.724 263.624 14.312 263.624 14.996C263.624 15.68 263.762 16.28 264.038 16.796C264.326 17.312 264.698 17.708 265.154 17.984C265.622 18.248 266.114 18.38 266.63 18.38C267.158 18.38 267.65 18.248 268.106 17.984C268.562 17.72 268.928 17.336 269.204 16.832C269.492 16.316 269.636 15.716 269.636 15.032ZM279.405 9.92C280.185 9.92 280.881 10.082 281.493 10.406C282.117 10.73 282.603 11.21 282.951 11.846C283.299 12.482 283.473 13.25 283.473 14.15V20H281.439V14.456C281.439 13.568 281.217 12.89 280.773 12.422C280.329 11.942 279.723 11.702 278.955 11.702C278.187 11.702 277.575 11.942 277.119 12.422C276.675 12.89 276.453 13.568 276.453 14.456V20H274.401V10.082H276.453V11.216C276.789 10.808 277.215 10.49 277.731 10.262C278.259 10.034 278.817 9.92 279.405 9.92ZM295.018 10.082L288.934 24.662H286.81L288.826 19.838L284.92 10.082H287.206L289.996 17.642L292.894 10.082H295.018ZM298.961 11.756V17.246C298.961 17.618 299.045 17.888 299.213 18.056C299.393 18.212 299.693 18.29 300.113 18.29H301.373V20H299.753C298.829 20 298.121 19.784 297.629 19.352C297.137 18.92 296.891 18.218 296.891 17.246V11.756H295.721V10.082H296.891V7.616H298.961V10.082H301.373V11.756H298.961ZM304.308 8.768C303.936 8.768 303.624 8.642 303.372 8.39C303.12 8.138 302.994 7.826 302.994 7.454C302.994 7.082 303.12 6.77 303.372 6.518C303.624 6.266 303.936 6.14 304.308 6.14C304.668 6.14 304.974 6.266 305.226 6.518C305.478 6.77 305.604 7.082 305.604 7.454C305.604 7.826 305.478 8.138 305.226 8.39C304.974 8.642 304.668 8.768 304.308 8.768ZM305.316 10.082V20H303.264V10.082H305.316ZM320.016 9.92C320.796 9.92 321.492 10.082 322.104 10.406C322.728 10.73 323.214 11.21 323.562 11.846C323.922 12.482 324.102 13.25 324.102 14.15V20H322.068V14.456C322.068 13.568 321.846 12.89 321.402 12.422C320.958 11.942 320.352 11.702 319.584 11.702C318.816 11.702 318.204 11.942 317.748 12.422C317.304 12.89 317.082 13.568 317.082 14.456V20H315.048V14.456C315.048 13.568 314.826 12.89 314.382 12.422C313.938 11.942 313.332 11.702 312.564 11.702C311.796 11.702 311.184 11.942 310.728 12.422C310.284 12.89 310.062 13.568 310.062 14.456V20H308.01V10.082H310.062V11.216C310.398 10.808 310.824 10.49 311.34 10.262C311.856 10.034 312.408 9.92 312.996 9.92C313.788 9.92 314.496 10.088 315.12 10.424C315.744 10.76 316.224 11.246 316.56 11.882C316.86 11.282 317.328 10.808 317.964 10.46C318.6 10.1 319.284 9.92 320.016 9.92ZM335.803 14.798C335.803 15.17 335.779 15.506 335.731 15.806H328.153C328.213 16.598 328.507 17.234 329.035 17.714C329.563 18.194 330.211 18.434 330.979 18.434C332.083 18.434 332.863 17.972 333.319 17.048H335.533C335.233 17.96 334.687 18.71 333.895 19.298C333.115 19.874 332.143 20.162 330.979 20.162C330.031 20.162 329.179 19.952 328.423 19.532C327.679 19.1 327.091 18.5 326.659 17.732C326.239 16.952 326.029 16.052 326.029 15.032C326.029 14.012 326.233 13.118 326.641 12.35C327.061 11.57 327.643 10.97 328.387 10.55C329.143 10.13 330.007 9.92 330.979 9.92C331.915 9.92 332.749 10.124 333.481 10.532C334.213 10.94 334.783 11.516 335.191 12.26C335.599 12.992 335.803 13.838 335.803 14.798ZM333.661 14.15C333.649 13.394 333.379 12.788 332.851 12.332C332.323 11.876 331.669 11.648 330.889 11.648C330.181 11.648 329.575 11.876 329.071 12.332C328.567 12.776 328.267 13.382 328.171 14.15H333.661ZM341.189 7.31C342.413 7.31 343.391 7.646 344.123 8.318C344.867 8.99 345.239 9.908 345.239 11.072C345.239 12.284 344.855 13.196 344.087 13.808C343.319 14.42 342.299 14.726 341.027 14.726L340.955 16.148H339.173L339.083 13.322H339.677C340.841 13.322 341.729 13.166 342.341 12.854C342.965 12.542 343.277 11.948 343.277 11.072C343.277 10.436 343.091 9.938 342.719 9.578C342.359 9.218 341.855 9.038 341.207 9.038C340.559 9.038 340.049 9.212 339.677 9.56C339.305 9.908 339.119 10.394 339.119 11.018H337.193C337.193 10.298 337.355 9.656 337.679 9.092C338.003 8.528 338.465 8.09 339.065 7.778C339.677 7.466 340.385 7.31 341.189 7.31ZM340.037 20.126C339.665 20.126 339.353 20 339.101 19.748C338.849 19.496 338.723 19.184 338.723 18.812C338.723 18.44 338.849 18.128 339.101 17.876C339.353 17.624 339.665 17.498 340.037 17.498C340.397 17.498 340.703 17.624 340.955 17.876C341.207 18.128 341.333 18.44 341.333 18.812C341.333 19.184 341.207 19.496 340.955 19.748C340.703 20 340.397 20.126 340.037 20.126Z" fill="white"/>
<line y1="48.5" x2="920" y2="48.5" stroke="#474747"/>
<path fill-rule="evenodd" clip-rule="evenodd" d="M0 13C0 6.376 5.376 1 12 1C18.624 1 24 6.376 24 13C24 19.624 18.624 25 12 25C5.376 25 0 19.624 0 13ZM13.2 14.2H18V11.8H13.2V7H10.8V11.8H6V14.2H10.8V19H13.2V14.2Z" fill="#02897A"/>
</svg>
