<svg width="222" height="50" viewBox="0 0 222 50" fill="none" xmlns="http://www.w3.org/2000/svg">
<rect width="50" height="50" rx="25" fill="#F4F5F7"/>
<path d="M34 37H25C24.7348 37 24.4804 36.8946 24.2929 36.7071C24.1054 36.5196 24 36.2652 24 36V34C24 33.7348 24.1054 33.4804 24.2929 33.2929C24.4804 33.1054 24.7348 33 25 33H34C34.2652 33 34.5196 33.1054 34.7071 33.2929C34.8946 33.4804 35 33.7348 35 34V36C35 36.2652 34.8946 36.5196 34.7071 36.7071C34.5196 36.8946 34.2652 37 34 37Z" fill="#D6B1FF"/>
<path d="M34 13H16C15.7348 13 15.4804 13.1054 15.2929 13.2929C15.1054 13.4804 15 13.7348 15 14V16C15 16.2652 15.1054 16.5196 15.2929 16.7071C15.4804 16.8946 15.7348 17 16 17H34C34.2652 17 34.5196 16.8946 34.7071 16.7071C34.8946 16.5196 35 16.2652 35 16V14C35 13.7348 34.8946 13.4804 34.7071 13.2929C34.5196 13.1054 34.2652 13 34 13Z" fill="#11B5E4"/>
<path d="M34 19H16C15.7348 19 15.4804 19.1054 15.2929 19.2929C15.1054 19.4804 15 19.7348 15 20V30C15 30.2652 15.1054 30.5196 15.2929 30.7071C15.4804 30.8946 15.7348 31 16 31H34C34.2652 31 34.5196 30.8946 34.7071 30.7071C34.8946 30.5196 35 30.2652 35 30V20C35 19.7348 34.8946 19.4804 34.7071 19.2929C34.5196 19.1054 34.2652 19 34 19Z" fill="#11B5E4"/>
<path d="M76.971 29.808H70.299L69.195 33H65.667L71.691 16.224H75.603L81.627 33H78.075L76.971 29.808ZM76.059 27.12L73.635 20.112L71.211 27.12H76.059ZM83.0147 26.352C83.0147 24.976 83.2947 23.776 83.8547 22.752C84.4147 21.712 85.1907 20.912 86.1827 20.352C87.1747 19.776 88.3107 19.488 89.5907 19.488C91.2387 19.488 92.5987 19.904 93.6707 20.736C94.7587 21.552 95.4867 22.704 95.8547 24.192H92.2307C92.0387 23.616 91.7107 23.168 91.2467 22.848C90.7987 22.512 90.2387 22.344 89.5667 22.344C88.6067 22.344 87.8467 22.696 87.2867 23.4C86.7267 24.088 86.4467 25.072 86.4467 26.352C86.4467 27.616 86.7267 28.6 87.2867 29.304C87.8467 29.992 88.6067 30.336 89.5667 30.336C90.9267 30.336 91.8147 29.728 92.2307 28.512H95.8547C95.4867 29.952 94.7587 31.096 93.6707 31.944C92.5827 32.792 91.2227 33.216 89.5907 33.216C88.3107 33.216 87.1747 32.936 86.1827 32.376C85.1907 31.8 84.4147 31 83.8547 29.976C83.2947 28.936 83.0147 27.728 83.0147 26.352ZM97.4522 26.352C97.4522 24.976 97.7322 23.776 98.2922 22.752C98.8522 21.712 99.6282 20.912 100.62 20.352C101.612 19.776 102.748 19.488 104.028 19.488C105.676 19.488 107.036 19.904 108.108 20.736C109.196 21.552 109.924 22.704 110.292 24.192H106.668C106.476 23.616 106.148 23.168 105.684 22.848C105.236 22.512 104.676 22.344 104.004 22.344C103.044 22.344 102.284 22.696 101.724 23.4C101.164 24.088 100.884 25.072 100.884 26.352C100.884 27.616 101.164 28.6 101.724 29.304C102.284 29.992 103.044 30.336 104.004 30.336C105.364 30.336 106.252 29.728 106.668 28.512H110.292C109.924 29.952 109.196 31.096 108.108 31.944C107.02 32.792 105.66 33.216 104.028 33.216C102.748 33.216 101.612 32.936 100.62 32.376C99.6282 31.8 98.8522 31 98.2922 29.976C97.7322 28.936 97.4522 27.728 97.4522 26.352ZM118.658 33.216C117.378 33.216 116.226 32.936 115.202 32.376C114.178 31.8 113.37 30.992 112.778 29.952C112.202 28.912 111.914 27.712 111.914 26.352C111.914 24.992 112.21 23.792 112.802 22.752C113.41 21.712 114.234 20.912 115.274 20.352C116.314 19.776 117.474 19.488 118.754 19.488C120.034 19.488 121.194 19.776 122.234 20.352C123.274 20.912 124.09 21.712 124.682 22.752C125.29 23.792 125.594 24.992 125.594 26.352C125.594 27.712 125.282 28.912 124.658 29.952C124.05 30.992 123.218 31.8 122.162 32.376C121.122 32.936 119.954 33.216 118.658 33.216ZM118.658 30.288C119.266 30.288 119.834 30.144 120.362 29.856C120.906 29.552 121.338 29.104 121.658 28.512C121.978 27.92 122.138 27.2 122.138 26.352C122.138 25.088 121.802 24.12 121.13 23.448C120.474 22.76 119.666 22.416 118.706 22.416C117.746 22.416 116.938 22.76 116.282 23.448C115.642 24.12 115.322 25.088 115.322 26.352C115.322 27.616 115.634 28.592 116.258 29.28C116.898 29.952 117.698 30.288 118.658 30.288ZM140.61 19.704V33H137.226V31.32C136.794 31.896 136.226 32.352 135.522 32.688C134.834 33.008 134.082 33.168 133.266 33.168C132.226 33.168 131.306 32.952 130.506 32.52C129.706 32.072 129.074 31.424 128.61 30.576C128.162 29.712 127.938 28.688 127.938 27.504V19.704H131.298V27.024C131.298 28.08 131.562 28.896 132.09 29.472C132.618 30.032 133.338 30.312 134.25 30.312C135.178 30.312 135.906 30.032 136.434 29.472C136.962 28.896 137.226 28.08 137.226 27.024V19.704H140.61ZM151.294 19.512C152.878 19.512 154.158 20.016 155.134 21.024C156.11 22.016 156.598 23.408 156.598 25.2V33H153.238V25.656C153.238 24.6 152.974 23.792 152.446 23.232C151.918 22.656 151.198 22.368 150.286 22.368C149.358 22.368 148.622 22.656 148.078 23.232C147.55 23.792 147.286 24.6 147.286 25.656V33H143.926V19.704H147.286V21.36C147.734 20.784 148.302 20.336 148.99 20.016C149.694 19.68 150.462 19.512 151.294 19.512ZM163.705 22.464V28.896C163.705 29.344 163.809 29.672 164.017 29.88C164.241 30.072 164.609 30.168 165.121 30.168H166.681V33H164.569C161.737 33 160.321 31.624 160.321 28.872V22.464H158.737V19.704H160.321V16.416H163.705V19.704H166.681V22.464H163.705ZM168.233 26.304C168.233 24.96 168.497 23.768 169.025 22.728C169.569 21.688 170.297 20.888 171.209 20.328C172.137 19.768 173.169 19.488 174.305 19.488C175.297 19.488 176.161 19.688 176.897 20.088C177.649 20.488 178.249 20.992 178.697 21.6V19.704H182.081V33H178.697V31.056C178.265 31.68 177.665 32.2 176.897 32.616C176.145 33.016 175.273 33.216 174.281 33.216C173.161 33.216 172.137 32.928 171.209 32.352C170.297 31.776 169.569 30.968 169.025 29.928C168.497 28.872 168.233 27.664 168.233 26.304ZM178.697 26.352C178.697 25.536 178.537 24.84 178.217 24.264C177.897 23.672 177.465 23.224 176.921 22.92C176.377 22.6 175.793 22.44 175.169 22.44C174.545 22.44 173.969 22.592 173.441 22.896C172.913 23.2 172.481 23.648 172.145 24.24C171.825 24.816 171.665 25.504 171.665 26.304C171.665 27.104 171.825 27.808 172.145 28.416C172.481 29.008 172.913 29.464 173.441 29.784C173.985 30.104 174.561 30.264 175.169 30.264C175.793 30.264 176.377 30.112 176.921 29.808C177.465 29.488 177.897 29.04 178.217 28.464C178.537 27.872 178.697 27.168 178.697 26.352ZM192.731 19.512C194.315 19.512 195.595 20.016 196.571 21.024C197.547 22.016 198.035 23.408 198.035 25.2V33H194.675V25.656C194.675 24.6 194.411 23.792 193.883 23.232C193.355 22.656 192.635 22.368 191.723 22.368C190.795 22.368 190.059 22.656 189.515 23.232C188.987 23.792 188.723 24.6 188.723 25.656V33H185.363V19.704H188.723V21.36C189.171 20.784 189.739 20.336 190.427 20.016C191.131 19.68 191.899 19.512 192.731 19.512ZM205.142 22.464V28.896C205.142 29.344 205.246 29.672 205.454 29.88C205.678 30.072 206.046 30.168 206.558 30.168H208.118V33H206.006C203.174 33 201.758 31.624 201.758 28.872V22.464H200.174V19.704H201.758V16.416H205.142V19.704H208.118V22.464H205.142ZM215.623 33.216C214.535 33.216 213.559 33.024 212.695 32.64C211.831 32.24 211.143 31.704 210.631 31.032C210.135 30.36 209.863 29.616 209.815 28.8H213.199C213.263 29.312 213.511 29.736 213.943 30.072C214.391 30.408 214.943 30.576 215.599 30.576C216.239 30.576 216.735 30.448 217.087 30.192C217.455 29.936 217.639 29.608 217.639 29.208C217.639 28.776 217.415 28.456 216.967 28.248C216.535 28.024 215.839 27.784 214.879 27.528C213.887 27.288 213.071 27.04 212.431 26.784C211.807 26.528 211.263 26.136 210.799 25.608C210.351 25.08 210.127 24.368 210.127 23.472C210.127 22.736 210.335 22.064 210.751 21.456C211.183 20.848 211.791 20.368 212.575 20.016C213.375 19.664 214.311 19.488 215.383 19.488C216.967 19.488 218.231 19.888 219.175 20.688C220.119 21.472 220.639 22.536 220.735 23.88H217.519C217.471 23.352 217.247 22.936 216.847 22.632C216.463 22.312 215.943 22.152 215.287 22.152C214.679 22.152 214.207 22.264 213.871 22.488C213.551 22.712 213.391 23.024 213.391 23.424C213.391 23.872 213.615 24.216 214.063 24.456C214.511 24.68 215.207 24.912 216.151 25.152C217.111 25.392 217.903 25.64 218.527 25.896C219.151 26.152 219.687 26.552 220.135 27.096C220.599 27.624 220.839 28.328 220.855 29.208C220.855 29.976 220.639 30.664 220.207 31.272C219.791 31.88 219.183 32.36 218.383 32.712C217.599 33.048 216.679 33.216 215.623 33.216Z" fill="white"/>
</svg>
