<svg width="206" height="50" viewBox="0 0 206 50" fill="none" xmlns="http://www.w3.org/2000/svg">
<rect width="50" height="50" rx="25" fill="#F4F5F7"/>
<path d="M18 14H15C14.7348 14 14.4804 14.1054 14.2929 14.2929C14.1054 14.4804 14 14.7348 14 15V35C14 35.2652 14.1054 35.5196 14.2929 35.7071C14.4804 35.8946 14.7348 36 15 36H18V14Z" fill="#D6B1FF"/>
<path d="M20 36H30V14H20V36ZM25 32C24.7348 32 24.4804 31.8946 24.2929 31.7071C24.1054 31.5196 24 31.2652 24 31C24 30.7348 24.1054 30.4804 24.2929 30.2929C24.4804 30.1054 24.7348 30 25 30C25.2652 30 25.5196 30.1054 25.7071 30.2929C25.8946 30.4804 26 30.7348 26 31C26 31.2652 25.8946 31.5196 25.7071 31.7071C25.5196 31.8946 25.2652 32 25 32ZM25 18C25.2652 18 25.5196 18.1054 25.7071 18.2929C25.8946 18.4804 26 18.7348 26 19C26 19.2652 25.8946 19.5196 25.7071 19.7071C25.5196 19.8946 25.2652 20 25 20C24.7348 20 24.4804 19.8946 24.2929 19.7071C24.1054 19.5196 24 19.2652 24 19C24 18.7348 24.1054 18.4804 24.2929 18.2929C24.4804 18.1054 24.7348 18 25 18ZM25 24C25.2652 24 25.5196 24.1054 25.7071 24.2929C25.8946 24.4804 26 24.7348 26 25C26 25.2652 25.8946 25.5196 25.7071 25.7071C25.5196 25.8946 25.2652 26 25 26C24.7348 26 24.4804 25.8946 24.2929 25.7071C24.1054 25.5196 24 25.2652 24 25C24 24.7348 24.1054 24.4804 24.2929 24.2929C24.4804 24.1054 24.7348 24 25 24Z" fill="#F03E3D"/>
<path d="M35 14H32V36H35C35.2652 36 35.5196 35.8946 35.7071 35.7071C35.8946 35.5196 36 35.2652 36 35V15C36 14.7348 35.8946 14.4804 35.7071 14.2929C35.5196 14.1054 35.2652 14 35 14Z" fill="#F03E3D"/>
<path d="M69.0696 16.248V26.616C69.0696 27.752 69.3656 28.624 69.9576 29.232C70.5496 29.824 71.3816 30.12 72.4536 30.12C73.5416 30.12 74.3816 29.824 74.9736 29.232C75.5656 28.624 75.8616 27.752 75.8616 26.616V16.248H79.2456V26.592C79.2456 28.016 78.9336 29.224 78.3096 30.216C77.7016 31.192 76.8776 31.928 75.8376 32.424C74.8136 32.92 73.6696 33.168 72.4056 33.168C71.1576 33.168 70.0216 32.92 68.9976 32.424C67.9896 31.928 67.1896 31.192 66.5976 30.216C66.0056 29.224 65.7096 28.016 65.7096 26.592V16.248H69.0696ZM89.8599 19.512C91.4439 19.512 92.7239 20.016 93.6999 21.024C94.6759 22.016 95.1639 23.408 95.1639 25.2V33H91.8039V25.656C91.8039 24.6 91.5399 23.792 91.0119 23.232C90.4839 22.656 89.7639 22.368 88.8519 22.368C87.9239 22.368 87.1879 22.656 86.6439 23.232C86.1159 23.792 85.8519 24.6 85.8519 25.656V33H82.4919V19.704H85.8519V21.36C86.2999 20.784 86.8679 20.336 87.5559 20.016C88.2599 19.68 89.0279 19.512 89.8599 19.512ZM100.063 18.12C99.4711 18.12 98.9751 17.936 98.5751 17.568C98.1911 17.184 97.9991 16.712 97.9991 16.152C97.9991 15.592 98.1911 15.128 98.5751 14.76C98.9751 14.376 99.4711 14.184 100.063 14.184C100.655 14.184 101.143 14.376 101.527 14.76C101.927 15.128 102.127 15.592 102.127 16.152C102.127 16.712 101.927 17.184 101.527 17.568C101.143 17.936 100.655 18.12 100.063 18.12ZM101.719 19.704V33H98.3591V19.704H101.719ZM110.583 29.904L113.943 19.704H117.519L112.599 33H108.519L103.623 19.704H107.223L110.583 29.904ZM131.766 26.064C131.766 26.544 131.734 26.976 131.67 27.36H121.95C122.03 28.32 122.366 29.072 122.958 29.616C123.55 30.16 124.278 30.432 125.142 30.432C126.39 30.432 127.278 29.896 127.806 28.824H131.43C131.046 30.104 130.31 31.16 129.222 31.992C128.134 32.808 126.798 33.216 125.214 33.216C123.934 33.216 122.782 32.936 121.758 32.376C120.75 31.8 119.958 30.992 119.382 29.952C118.822 28.912 118.542 27.712 118.542 26.352C118.542 24.976 118.822 23.768 119.382 22.728C119.942 21.688 120.726 20.888 121.734 20.328C122.742 19.768 123.902 19.488 125.214 19.488C126.478 19.488 127.606 19.76 128.598 20.304C129.606 20.848 130.382 21.624 130.926 22.632C131.486 23.624 131.766 24.768 131.766 26.064ZM128.286 25.104C128.27 24.24 127.958 23.552 127.35 23.04C126.742 22.512 125.998 22.248 125.118 22.248C124.286 22.248 123.582 22.504 123.006 23.016C122.446 23.512 122.102 24.208 121.974 25.104H128.286ZM137.579 21.768C138.011 21.064 138.571 20.512 139.259 20.112C139.963 19.712 140.763 19.512 141.659 19.512V23.04H140.771C139.715 23.04 138.915 23.288 138.371 23.784C137.843 24.28 137.579 25.144 137.579 26.376V33H134.219V19.704H137.579V21.768ZM149.01 33.216C147.922 33.216 146.946 33.024 146.082 32.64C145.218 32.24 144.53 31.704 144.018 31.032C143.522 30.36 143.25 29.616 143.202 28.8H146.586C146.65 29.312 146.898 29.736 147.33 30.072C147.778 30.408 148.33 30.576 148.986 30.576C149.626 30.576 150.122 30.448 150.474 30.192C150.842 29.936 151.026 29.608 151.026 29.208C151.026 28.776 150.802 28.456 150.354 28.248C149.922 28.024 149.226 27.784 148.266 27.528C147.274 27.288 146.458 27.04 145.818 26.784C145.194 26.528 144.65 26.136 144.186 25.608C143.738 25.08 143.514 24.368 143.514 23.472C143.514 22.736 143.722 22.064 144.138 21.456C144.57 20.848 145.178 20.368 145.962 20.016C146.762 19.664 147.698 19.488 148.77 19.488C150.354 19.488 151.618 19.888 152.562 20.688C153.506 21.472 154.026 22.536 154.122 23.88H150.906C150.858 23.352 150.634 22.936 150.234 22.632C149.85 22.312 149.33 22.152 148.674 22.152C148.066 22.152 147.594 22.264 147.258 22.488C146.938 22.712 146.778 23.024 146.778 23.424C146.778 23.872 147.002 24.216 147.45 24.456C147.898 24.68 148.594 24.912 149.538 25.152C150.498 25.392 151.29 25.64 151.914 25.896C152.538 26.152 153.074 26.552 153.522 27.096C153.986 27.624 154.226 28.328 154.242 29.208C154.242 29.976 154.026 30.664 153.594 31.272C153.178 31.88 152.57 32.36 151.77 32.712C150.986 33.048 150.066 33.216 149.01 33.216ZM158.704 18.12C158.112 18.12 157.616 17.936 157.216 17.568C156.832 17.184 156.64 16.712 156.64 16.152C156.64 15.592 156.832 15.128 157.216 14.76C157.616 14.376 158.112 14.184 158.704 14.184C159.296 14.184 159.784 14.376 160.168 14.76C160.568 15.128 160.768 15.592 160.768 16.152C160.768 16.712 160.568 17.184 160.168 17.568C159.784 17.936 159.296 18.12 158.704 18.12ZM160.36 19.704V33H157V19.704H160.36ZM167.591 22.464V28.896C167.591 29.344 167.695 29.672 167.903 29.88C168.127 30.072 168.495 30.168 169.007 30.168H170.567V33H168.455C165.623 33 164.207 31.624 164.207 28.872V22.464H162.623V19.704H164.207V16.416H167.591V19.704H170.567V22.464H167.591ZM174.688 18.12C174.096 18.12 173.6 17.936 173.2 17.568C172.816 17.184 172.624 16.712 172.624 16.152C172.624 15.592 172.816 15.128 173.2 14.76C173.6 14.376 174.096 14.184 174.688 14.184C175.28 14.184 175.768 14.376 176.152 14.76C176.552 15.128 176.752 15.592 176.752 16.152C176.752 16.712 176.552 17.184 176.152 17.568C175.768 17.936 175.28 18.12 174.688 18.12ZM176.344 19.704V33H172.984V19.704H176.344ZM192.024 26.064C192.024 26.544 191.992 26.976 191.928 27.36H182.208C182.288 28.32 182.624 29.072 183.216 29.616C183.808 30.16 184.536 30.432 185.4 30.432C186.648 30.432 187.536 29.896 188.064 28.824H191.688C191.304 30.104 190.568 31.16 189.48 31.992C188.392 32.808 187.056 33.216 185.472 33.216C184.192 33.216 183.04 32.936 182.016 32.376C181.008 31.8 180.216 30.992 179.64 29.952C179.08 28.912 178.8 27.712 178.8 26.352C178.8 24.976 179.08 23.768 179.64 22.728C180.2 21.688 180.984 20.888 181.992 20.328C183 19.768 184.16 19.488 185.472 19.488C186.736 19.488 187.864 19.76 188.856 20.304C189.864 20.848 190.64 21.624 191.184 22.632C191.744 23.624 192.024 24.768 192.024 26.064ZM188.544 25.104C188.528 24.24 188.216 23.552 187.608 23.04C187 22.512 186.256 22.248 185.376 22.248C184.544 22.248 183.84 22.504 183.264 23.016C182.704 23.512 182.36 24.208 182.232 25.104H188.544ZM199.564 33.216C198.476 33.216 197.5 33.024 196.636 32.64C195.772 32.24 195.084 31.704 194.572 31.032C194.076 30.36 193.804 29.616 193.756 28.8H197.14C197.204 29.312 197.452 29.736 197.884 30.072C198.332 30.408 198.884 30.576 199.54 30.576C200.18 30.576 200.676 30.448 201.028 30.192C201.396 29.936 201.58 29.608 201.58 29.208C201.58 28.776 201.356 28.456 200.908 28.248C200.476 28.024 199.78 27.784 198.82 27.528C197.828 27.288 197.012 27.04 196.372 26.784C195.748 26.528 195.204 26.136 194.74 25.608C194.292 25.08 194.068 24.368 194.068 23.472C194.068 22.736 194.276 22.064 194.692 21.456C195.124 20.848 195.732 20.368 196.516 20.016C197.316 19.664 198.252 19.488 199.324 19.488C200.908 19.488 202.172 19.888 203.116 20.688C204.06 21.472 204.58 22.536 204.676 23.88H201.46C201.412 23.352 201.188 22.936 200.788 22.632C200.404 22.312 199.884 22.152 199.228 22.152C198.62 22.152 198.148 22.264 197.812 22.488C197.492 22.712 197.332 23.024 197.332 23.424C197.332 23.872 197.556 24.216 198.004 24.456C198.452 24.68 199.148 24.912 200.092 25.152C201.052 25.392 201.844 25.64 202.468 25.896C203.092 26.152 203.628 26.552 204.076 27.096C204.54 27.624 204.78 28.328 204.796 29.208C204.796 29.976 204.58 30.664 204.148 31.272C203.732 31.88 203.124 32.36 202.324 32.712C201.54 33.048 200.62 33.216 199.564 33.216Z" fill="white"/>
</svg>
