<svg width="224" height="50" viewBox="0 0 224 50" fill="none" xmlns="http://www.w3.org/2000/svg">
<rect width="50" height="50" rx="25" fill="#F4F5F7"/>
<g clip-path="url(#clip0_49_185)">
<path d="M31 23H37L34 19L31 23ZM31 27H37L34 31L31 27Z" fill="#D6B1FF"/>
<path d="M14 13H20V37H14C13.7348 37 13.4804 36.8946 13.2929 36.7071C13.1054 36.5196 13 36.2652 13 36V14C13 13.7348 13.1054 13.4804 13.2929 13.2929C13.4804 13.1054 13.7348 13 14 13Z" fill="#02897A"/>
<path d="M22 13H28C28.2652 13 28.5196 13.1054 28.7071 13.2929C28.8946 13.4804 29 13.7348 29 14V36C29 36.2652 28.8946 36.5196 28.7071 36.7071C28.5196 36.8946 28.2652 37 28 37H22V13Z" fill="#02897A"/>
</g>
<path d="M69.2699 18.96V23.16H74.9099V25.824H69.2699V30.264H75.6299V33H65.9099V16.224H75.6299V18.96H69.2699ZM86.0513 19.512C87.6353 19.512 88.9153 20.016 89.8913 21.024C90.8673 22.016 91.3553 23.408 91.3553 25.2V33H87.9953V25.656C87.9953 24.6 87.7313 23.792 87.2033 23.232C86.6753 22.656 85.9553 22.368 85.0433 22.368C84.1153 22.368 83.3793 22.656 82.8353 23.232C82.3073 23.792 82.0433 24.6 82.0433 25.656V33H78.6833V19.704H82.0433V21.36C82.4913 20.784 83.0593 20.336 83.7473 20.016C84.4513 19.68 85.2193 19.512 86.0513 19.512ZM98.4625 22.464V28.896C98.4625 29.344 98.5665 29.672 98.7745 29.88C98.9985 30.072 99.3665 30.168 99.8785 30.168H101.439V33H99.3265C96.4945 33 95.0785 31.624 95.0785 28.872V22.464H93.4945V19.704H95.0785V16.416H98.4625V19.704H101.439V22.464H98.4625ZM116.215 26.064C116.215 26.544 116.183 26.976 116.119 27.36H106.399C106.479 28.32 106.815 29.072 107.407 29.616C107.999 30.16 108.727 30.432 109.591 30.432C110.839 30.432 111.727 29.896 112.255 28.824H115.879C115.495 30.104 114.759 31.16 113.671 31.992C112.583 32.808 111.247 33.216 109.663 33.216C108.383 33.216 107.231 32.936 106.207 32.376C105.199 31.8 104.407 30.992 103.831 29.952C103.271 28.912 102.991 27.712 102.991 26.352C102.991 24.976 103.271 23.768 103.831 22.728C104.391 21.688 105.175 20.888 106.183 20.328C107.191 19.768 108.351 19.488 109.663 19.488C110.927 19.488 112.055 19.76 113.047 20.304C114.055 20.848 114.831 21.624 115.375 22.632C115.935 23.624 116.215 24.768 116.215 26.064ZM112.735 25.104C112.719 24.24 112.407 23.552 111.799 23.04C111.191 22.512 110.447 22.248 109.567 22.248C108.735 22.248 108.031 22.504 107.455 23.016C106.895 23.512 106.551 24.208 106.423 25.104H112.735ZM122.028 21.768C122.46 21.064 123.02 20.512 123.708 20.112C124.412 19.712 125.212 19.512 126.108 19.512V23.04H125.22C124.164 23.04 123.364 23.288 122.82 23.784C122.292 24.28 122.028 25.144 122.028 26.376V33H118.668V19.704H122.028V21.768ZM131.731 21.624C132.163 21.016 132.755 20.512 133.507 20.112C134.275 19.696 135.147 19.488 136.123 19.488C137.259 19.488 138.283 19.768 139.195 20.328C140.123 20.888 140.851 21.688 141.379 22.728C141.923 23.752 142.195 24.944 142.195 26.304C142.195 27.664 141.923 28.872 141.379 29.928C140.851 30.968 140.123 31.776 139.195 32.352C138.283 32.928 137.259 33.216 136.123 33.216C135.147 33.216 134.283 33.016 133.531 32.616C132.795 32.216 132.195 31.712 131.731 31.104V39.336H128.371V19.704H131.731V21.624ZM138.763 26.304C138.763 25.504 138.595 24.816 138.259 24.24C137.939 23.648 137.507 23.2 136.963 22.896C136.435 22.592 135.859 22.44 135.235 22.44C134.627 22.44 134.051 22.6 133.507 22.92C132.979 23.224 132.547 23.672 132.211 24.264C131.891 24.856 131.731 25.552 131.731 26.352C131.731 27.152 131.891 27.848 132.211 28.44C132.547 29.032 132.979 29.488 133.507 29.808C134.051 30.112 134.627 30.264 135.235 30.264C135.859 30.264 136.435 30.104 136.963 29.784C137.507 29.464 137.939 29.008 138.259 28.416C138.595 27.824 138.763 27.12 138.763 26.304ZM147.996 21.768C148.428 21.064 148.988 20.512 149.676 20.112C150.38 19.712 151.18 19.512 152.076 19.512V23.04H151.188C150.132 23.04 149.332 23.288 148.788 23.784C148.26 24.28 147.996 25.144 147.996 26.376V33H144.636V19.704H147.996V21.768ZM166.7 26.064C166.7 26.544 166.668 26.976 166.604 27.36H156.884C156.964 28.32 157.3 29.072 157.892 29.616C158.484 30.16 159.212 30.432 160.076 30.432C161.324 30.432 162.212 29.896 162.74 28.824H166.364C165.98 30.104 165.244 31.16 164.156 31.992C163.068 32.808 161.732 33.216 160.148 33.216C158.868 33.216 157.716 32.936 156.692 32.376C155.684 31.8 154.892 30.992 154.316 29.952C153.756 28.912 153.476 27.712 153.476 26.352C153.476 24.976 153.756 23.768 154.316 22.728C154.876 21.688 155.66 20.888 156.668 20.328C157.676 19.768 158.836 19.488 160.148 19.488C161.412 19.488 162.54 19.76 163.532 20.304C164.54 20.848 165.316 21.624 165.86 22.632C166.42 23.624 166.7 24.768 166.7 26.064ZM163.22 25.104C163.204 24.24 162.892 23.552 162.284 23.04C161.676 22.512 160.932 22.248 160.052 22.248C159.22 22.248 158.516 22.504 157.94 23.016C157.38 23.512 157.036 24.208 156.908 25.104H163.22ZM176.52 19.512C178.104 19.512 179.384 20.016 180.36 21.024C181.336 22.016 181.824 23.408 181.824 25.2V33H178.464V25.656C178.464 24.6 178.2 23.792 177.672 23.232C177.144 22.656 176.424 22.368 175.512 22.368C174.584 22.368 173.848 22.656 173.304 23.232C172.776 23.792 172.512 24.6 172.512 25.656V33H169.152V19.704H172.512V21.36C172.96 20.784 173.528 20.336 174.216 20.016C174.92 19.68 175.688 19.512 176.52 19.512ZM197.379 26.064C197.379 26.544 197.347 26.976 197.283 27.36H187.563C187.643 28.32 187.979 29.072 188.571 29.616C189.163 30.16 189.891 30.432 190.755 30.432C192.003 30.432 192.891 29.896 193.419 28.824H197.043C196.659 30.104 195.923 31.16 194.835 31.992C193.747 32.808 192.411 33.216 190.827 33.216C189.547 33.216 188.395 32.936 187.371 32.376C186.363 31.8 185.571 30.992 184.995 29.952C184.435 28.912 184.155 27.712 184.155 26.352C184.155 24.976 184.435 23.768 184.995 22.728C185.555 21.688 186.339 20.888 187.347 20.328C188.355 19.768 189.515 19.488 190.827 19.488C192.091 19.488 193.219 19.76 194.211 20.304C195.219 20.848 195.995 21.624 196.539 22.632C197.099 23.624 197.379 24.768 197.379 26.064ZM193.899 25.104C193.883 24.24 193.571 23.552 192.963 23.04C192.355 22.512 191.611 22.248 190.731 22.248C189.899 22.248 189.195 22.504 188.619 23.016C188.059 23.512 187.715 24.208 187.587 25.104H193.899ZM212.384 19.704V33H209V31.32C208.568 31.896 208 32.352 207.296 32.688C206.608 33.008 205.856 33.168 205.04 33.168C204 33.168 203.08 32.952 202.28 32.52C201.48 32.072 200.848 31.424 200.384 30.576C199.936 29.712 199.712 28.688 199.712 27.504V19.704H203.072V27.024C203.072 28.08 203.336 28.896 203.864 29.472C204.392 30.032 205.112 30.312 206.024 30.312C206.952 30.312 207.68 30.032 208.208 29.472C208.736 28.896 209 28.08 209 27.024V19.704H212.384ZM219.059 21.768C219.491 21.064 220.051 20.512 220.739 20.112C221.443 19.712 222.243 19.512 223.139 19.512V23.04H222.251C221.195 23.04 220.395 23.288 219.851 23.784C219.323 24.28 219.059 25.144 219.059 26.376V33H215.699V19.704H219.059V21.768Z" fill="white"/>
<defs>
<clipPath id="clip0_49_185">
<rect width="24" height="24" fill="white" transform="translate(13 13)"/>
</clipPath>
</defs>
</svg>
